<?xml version="1.0" encoding="UTF-8"?>
<svg id="Capa_9" data-name="Capa 9" xmlns="http://www.w3.org/2000/svg" viewBox="0 0 618.06 187.07">
  <defs>
    <style>
      .cls-1 {
        fill: #17ab92;
        stroke-width: 0px;
      }
    </style>
  </defs>
  <g>
    <circle class="cls-1" cx="52.03" cy="46.27" r="12.78" transform="translate(-13.85 23.74) rotate(-22.77)"/>
    <g>
      <path class="cls-1" d="m182.68,106.52c-.2,2.09-.5,4.15-.86,6.18-7.38,43.14-42.64,74.37-88.53,74.37C41.54,187.07,0,146.63,0,94.88c0-25.52,10.2-48.65,26.72-65.57l1.16-1.16s.1-.1.27-.23c2.82-2.46,26.35-22.27,49.25-21.73C45,17.82,19.81,48.53,19.81,84.28c0,5.38.5,10.6,1.43,15.62.23-.66,14.39-44.86,61.48-43.27,0,0-40.08,8.37-42.2,52.67-1.96,41.17,44.93,54.33,61.11,54.83.73-.03,1.5-.03,2.23-.07.7-.03,1.36-.1,2.06-.13.27-.03.6-.07.83-.07.2,0,.43,0,.63-.03,1.26-.1,2.53-.23,3.76-.4.7-.07,1.36-.17,2.03-.3.93-.13,1.83-.27,2.73-.47.9-.13,1.83-.33,2.72-.53.8-.17,1.6-.37,2.39-.56.73-.17,1.46-.37,2.19-.6l.8-.2c.93-.27,1.86-.56,2.76-.86,1.5-.5,2.99-1.03,4.45-1.63,1.1-.43,2.19-.9,3.29-1.4,1.1-.5,2.16-1,3.22-1.53.07-.03.17-.1.27-.13,1.1-.56,2.19-1.16,3.26-1.79.8-.43,1.6-.93,2.36-1.4,4.79-2.99,9.21-6.48,13.16-10.43.66-.63,1.3-1.3,1.93-1.99.03,0,.07-.03.1-.1.7-.73,1.36-1.5,2.03-2.26.43-.5.86-1,1.26-1.53.23-.27.43-.53.66-.83.56-.7,1.1-1.4,1.6-2.13.13-.17.27-.33.37-.5.63-.86,1.23-1.73,1.79-2.63.63-.96,1.26-1.96,1.83-2.96.56-.9,1.1-1.83,1.6-2.79.5-.96.96-1.89,1.43-2.89.56-1.13,1.1-2.29,1.56-3.49.23-.53.43-1.06.63-1.63.3-.66.56-1.36.76-2.03.83-2.23,1.53-4.55,2.13-6.91.56-2.06,1-4.19,1.36-6.35.1-.53.2-1.06.27-1.6.07-.6,1.66-13.49,1.76-21.73v-.1c.2.73,3.22,12.23,2.86,29.34Z"/>
      <path class="cls-1" d="m150.08,108.14l-5.18-.6c-.07-3.32-.56-6.55-1.43-9.6l4.59-2.13c2.59-1.2,3.69-4.25,2.49-6.85l-2.76-5.98c-1.2-2.56-4.25-3.69-6.85-2.49l-5.68,2.63c-1.99-2.23-4.25-4.25-6.78-5.98l1.96-5.82c.9-2.69-.56-5.58-3.26-6.48l-6.25-2.09c-2.69-.9-5.62.57-6.51,3.26l-1.66,5.02c-1.79-.27-3.62-.43-5.48-.43-1.4,0-2.79.1-4.19.23l-1.5-5.05c-.83-2.69-3.69-4.25-6.41-3.42l-6.31,1.89c-2.73.83-4.25,3.69-3.42,6.41l1.73,5.78c-2.59,1.66-4.98,3.62-7.11,5.85l-5.12-2.96c-2.46-1.43-5.62-.6-7.01,1.86l-3.32,5.72c-1.4,2.46-.56,5.58,1.89,7.01l4.92,2.86c-.86,2.76-1.43,5.68-1.66,8.71l-5.82.93c-2.79.47-4.69,3.12-4.22,5.92l1.06,6.51c.47,2.79,3.09,4.69,5.92,4.22l5.62-.93c1.2,2.96,2.73,5.68,4.55,8.21l-3.95,5.12c-1.73,2.23-1.33,5.45.93,7.21l5.22,4.02c2.23,1.73,5.45,1.33,7.21-.93l3.32-4.32c2.63,1.43,5.48,2.49,8.44,3.26l-.07,5.92c-.03,2.82,2.23,5.15,5.08,5.18l6.58.07c2.82.03,5.15-2.23,5.18-5.08l.07-5.68c3.12-.63,6.08-1.69,8.87-3.06l4.35,4.79c1.89,2.09,5.15,2.23,7.24.33l4.89-4.42c2.09-1.93,2.26-5.15.33-7.28l-3.69-4.05c1.76-2.23,3.26-4.69,4.49-7.28l6.75.76c2.82.33,5.38-1.69,5.72-4.49l.76-6.55c.3-2.82-1.69-5.38-4.52-5.72Zm-42.8,27.78c-15.29,0-27.68-12.4-27.68-27.68s12.4-27.68,27.68-27.68,27.68,12.4,27.68,27.68-12.4,27.68-27.68,27.68Z"/>
      <path class="cls-1" d="m184.03,51l-3.48-.42c-.03-2.22-.35-4.38-.93-6.41l3.06-1.42c1.71-.81,2.45-2.87,1.68-4.57l-1.87-3.99c-.81-1.71-2.84-2.45-4.54-1.68l-3.8,1.77c-1.35-1.51-2.87-2.87-4.54-3.99l1.29-3.9c.61-1.8-.35-3.74-2.16-4.35l-4.19-1.39c-1.8-.58-3.74.39-4.32,2.19l-1.13,3.35c-1.19-.19-2.42-.29-3.64-.29-.97,0-1.9.06-2.8.16l-1.03-3.38c-.55-1.8-2.45-2.84-4.28-2.29l-4.19,1.29c-1.84.55-2.87,2.45-2.32,4.25l1.19,3.87c-1.74,1.13-3.35,2.42-4.77,3.9l-3.42-1.97c-1.64-.93-3.74-.39-4.7,1.26l-2.19,3.8c-.97,1.64-.39,3.74,1.26,4.7l3.29,1.9c-.58,1.84-.97,3.8-1.1,5.8l-3.9.64c-1.87.32-3.16,2.06-2.84,3.93l.71,4.35c.32,1.87,2.09,3.16,3.96,2.84l3.77-.61c.77,1.97,1.8,3.8,3.03,5.48l-2.64,3.42c-1.16,1.48-.87,3.64.61,4.8l3.48,2.71c1.51,1.16,3.67.87,4.83-.61l2.22-2.9c1.77.93,3.64,1.68,5.64,2.16l-.06,3.96c0,1.9,1.51,3.45,3.42,3.48l4.38.03c1.9.03,3.45-1.48,3.48-3.38l.03-3.8c2.09-.42,4.06-1.13,5.93-2.06l2.9,3.19c1.29,1.42,3.45,1.51,4.86.23l3.25-2.93c1.39-1.29,1.51-3.45.23-4.86l-2.45-2.71c1.16-1.51,2.16-3.13,2.96-4.86l4.51.52c1.9.23,3.61-1.13,3.8-3.03l.52-4.35c.23-1.9-1.13-3.61-3-3.8Zm-28.58,18.53c-10.25,0-18.49-8.28-18.49-18.49s8.25-18.49,18.49-18.49,18.49,8.28,18.49,18.49-8.28,18.49-18.49,18.49Z"/>
      <path class="cls-1" d="m122.19,22.9l-2.56-.3c-.03-1.66-.3-3.26-.73-4.79l2.29-1.06c1.26-.6,1.83-2.13,1.23-3.39l-1.36-2.99c-.6-1.26-2.13-1.83-3.39-1.23l-2.86,1.3c-1-1.1-2.13-2.13-3.36-2.96l.96-2.92c.43-1.33-.3-2.76-1.63-3.22l-3.12-1.03c-1.33-.43-2.79.27-3.22,1.63l-.83,2.49c-.9-.13-1.79-.23-2.73-.23-.7,0-1.4.07-2.09.13l-.73-2.53c-.43-1.33-1.86-2.09-3.19-1.69l-3.16.96c-1.36.4-2.13,1.83-1.69,3.19l.86,2.86c-1.3.83-2.49,1.79-3.56,2.92l-2.56-1.5c-1.2-.7-2.76-.27-3.49.93l-1.63,2.86c-.7,1.23-.3,2.79.93,3.49l2.46,1.43c-.43,1.36-.73,2.82-.83,4.32l-2.89.47c-1.4.23-2.36,1.56-2.13,2.96l.53,3.22c.23,1.4,1.56,2.36,2.96,2.13l2.79-.47c.6,1.46,1.36,2.82,2.26,4.09l-1.96,2.53c-.86,1.13-.66,2.73.47,3.59l2.59,2.03c1.13.86,2.73.66,3.59-.47l1.66-2.16c1.33.7,2.73,1.23,4.19,1.63l-.03,2.92c0,1.43,1.13,2.59,2.56,2.59l3.26.03c1.43.03,2.59-1.1,2.59-2.53l.03-2.82c1.56-.33,3.02-.86,4.42-1.53l2.16,2.36c.96,1.06,2.56,1.13,3.62.2l2.43-2.23c1.03-.93,1.13-2.56.17-3.59l-1.83-2.03c.86-1.13,1.63-2.36,2.23-3.66l3.36.4c1.4.17,2.66-.83,2.82-2.23l.4-3.26c.17-1.43-.86-2.69-2.26-2.86Zm-21.3,13.82c-7.61,0-13.79-6.15-13.79-13.79s6.18-13.76,13.79-13.76,13.79,6.15,13.79,13.76-6.18,13.79-13.79,13.79Z"/>
    </g>
  </g>
  <g>
    <path class="cls-1" d="m301.71,78.39l-23.05.04c-1.57-15.14-13.65-14.78-22.67-14.78-4.23,0-8.59,2.15-11.06,3.93-2.46,1.78-3.7,3.87-3.7,6.25,0,2.76,1.46,4.96,4.37,6.6,2.91,1.64,14.08,5.26,23.36,7.92,8.44,2.33,15.08,4.64,19.91,6.92,4.83,2.28,7.85,6.16,10.83,10.09,2.98,3.93,4.47,8.48,4.47,13.67,0,9.09-2.32,23.76-10.73,29.59-8.42,5.83-19.69,8.74-33.83,8.74-23.74,0-41.16-13.89-44.02-38.08l22.66-2.03c.09,16.34,14.55,20.35,25.49,20.35,4.99,0,9-1.26,12.1-3.19,3.1-1.93,6.62-8.31,6.62-11.46,0-2.38-.51-4.85-2.69-6.73-2.18-1.88-7.17-3.87-14.97-5.96-10.04-2.66-23.58-7.12-28.51-9.29-4.93-2.17-8.16-5.41-11.36-9.43-3.2-4.02-5.17-9.79-5.17-14.94,0-8.75,3.27-18.75,10.85-24.35,7.58-5.59,17.61-8.39,30.09-8.39,22.78,0,40.83,12.6,41,34.49Z"/>
    <path class="cls-1" d="m353.57,46.24h23.65l44.43,109.62h-24.48l-9.14-25.33h-43.11l-8.66,25.33h-26.46l43.77-109.62Zm27.01,66.17l-14.71-40.18-14.91,39.48,29.63.7Z"/>
    <path class="cls-1" d="m432.68,46.24h31.55c11.45,0,22.89-.28,29.2,1.15,6.3,1.43,12.47,5.68,16.65,10.79,5.29,6.46,7.56,21.95,5.87,29.18q-1.73,7.4-5.18,12.07c-3.46,4.67-8.11,9.27-14.22,11.35-6.11,2.07-18.4,3.41-31.07,3.41h-10.17v41.68h-22.62V46.24Zm22.62,18.4v30.95h19.51c7.87,0,12.15-2.19,14.43-4.91,2.27-2.72,4.19-7.45,4.19-11.79,0-2.84-.98-6.15-2.74-8.41-1.76-2.27-3.71-4.21-6.04-4.86-2.34-.64-5.61-.97-9.84-.97h-19.51Z"/>
    <path class="cls-1" d="m534.25,46.24h31.55c11.45,0,22.89-.28,29.2,1.15,6.3,1.43,12.47,5.68,16.65,10.79,5.29,6.46,7.56,21.95,5.87,29.18q-1.73,7.4-5.18,12.07c-3.46,4.67-8.11,9.27-14.22,11.35-6.11,2.07-18.4,3.41-31.07,3.41h-10.17v41.68h-22.62V46.24Zm22.62,18.4v30.95h19.51c7.87,0,12.15-2.19,14.43-4.91,2.27-2.72,4.19-7.45,4.19-11.79,0-2.84-.98-6.15-2.74-8.41-1.76-2.27-3.71-4.21-6.04-4.86-2.34-.64-5.61-.97-9.84-.97h-19.51Z"/>
  </g>
</svg>