<?xml version="1.0" encoding="UTF-8"?>
<svg id="Capa_9" data-name="Capa 9" xmlns="http://www.w3.org/2000/svg" viewBox="0 0 512 512">
  <defs>
    <style>
      .cls-1 {
        fill: #fff;
        stroke-width: 0px;
      }
    </style>
  </defs>
  <g>
    <circle class="cls-1" cx="209" cy="115.27" r="14.91" transform="translate(-28.32 89.86) rotate(-22.77)"/>
    <g>
      <path class="cls-1" d="m361.38,185.54c-.23,2.44-.58,4.85-1.01,7.21-8.6,50.31-49.73,86.75-103.26,86.75-60.35,0-108.8-47.17-108.8-107.52,0-29.77,11.9-56.75,31.16-76.48l1.36-1.36s.12-.12.31-.27c3.29-2.87,30.74-25.97,57.44-25.35-37.79,13.57-67.17,49.38-67.17,91.09,0,6.28.58,12.36,1.67,18.22.27-.78,16.78-52.33,71.71-50.47,0,0-46.75,9.77-49.23,61.44-2.29,48.03,52.41,63.38,71.28,63.96.85-.04,1.74-.04,2.6-.08.81-.04,1.59-.12,2.4-.16.31-.04.7-.08.97-.08.23,0,.5,0,.74-.04,1.47-.12,2.95-.27,4.38-.47.81-.08,1.59-.19,2.36-.35,1.09-.15,2.13-.31,3.18-.54,1.05-.15,2.13-.39,3.18-.62.93-.19,1.86-.43,2.79-.66.85-.19,1.71-.43,2.56-.7l.93-.23c1.09-.31,2.17-.66,3.22-1.01,1.74-.58,3.49-1.2,5.19-1.9,1.28-.5,2.56-1.05,3.84-1.63,1.28-.58,2.52-1.16,3.76-1.78.08-.04.19-.12.31-.16,1.28-.66,2.56-1.36,3.8-2.09.93-.5,1.86-1.09,2.75-1.63,5.58-3.49,10.74-7.56,15.35-12.17.78-.74,1.51-1.51,2.25-2.33.04,0,.08-.04.12-.12.81-.85,1.59-1.74,2.36-2.64.5-.58,1.01-1.16,1.47-1.78.27-.31.5-.62.78-.97.66-.81,1.28-1.63,1.86-2.48.16-.19.31-.39.43-.58.74-1.01,1.43-2.02,2.09-3.06.74-1.12,1.47-2.29,2.13-3.45.66-1.05,1.28-2.13,1.86-3.26.58-1.12,1.12-2.21,1.67-3.37.66-1.32,1.28-2.67,1.82-4.07.27-.62.5-1.24.74-1.9.35-.78.66-1.59.89-2.36.97-2.6,1.78-5.31,2.48-8.06.66-2.4,1.16-4.88,1.59-7.4.12-.62.23-1.24.31-1.86.08-.7,1.94-15.74,2.05-25.35v-.12c.23.85,3.76,14.26,3.33,34.23Z"/>
      <path class="cls-1" d="m323.36,187.44l-6.05-.7c-.08-3.88-.66-7.64-1.67-11.2l5.35-2.48c3.02-1.4,4.3-4.96,2.91-7.98l-3.22-6.98c-1.4-2.98-4.96-4.3-7.98-2.91l-6.63,3.06c-2.33-2.6-4.96-4.96-7.91-6.98l2.29-6.78c1.05-3.14-.66-6.51-3.8-7.56l-7.29-2.44c-3.14-1.05-6.55.66-7.6,3.8l-1.94,5.85c-2.09-.31-4.23-.5-6.4-.5-1.63,0-3.26.12-4.88.27l-1.74-5.89c-.97-3.14-4.3-4.96-7.48-3.99l-7.36,2.21c-3.18.97-4.96,4.3-3.99,7.48l2.02,6.74c-3.02,1.94-5.81,4.22-8.29,6.82l-5.97-3.45c-2.87-1.67-6.55-.7-8.18,2.17l-3.88,6.67c-1.63,2.87-.66,6.51,2.21,8.18l5.74,3.33c-1.01,3.22-1.67,6.63-1.94,10.16l-6.78,1.09c-3.26.54-5.47,3.64-4.92,6.9l1.24,7.6c.54,3.26,3.6,5.47,6.9,4.92l6.55-1.09c1.4,3.45,3.18,6.63,5.31,9.57l-4.61,5.97c-2.02,2.6-1.55,6.36,1.09,8.41l6.09,4.69c2.6,2.02,6.36,1.55,8.41-1.09l3.88-5.04c3.06,1.67,6.4,2.91,9.85,3.8l-.08,6.9c-.04,3.29,2.6,6.01,5.93,6.05l7.67.08c3.29.04,6.01-2.6,6.05-5.93l.08-6.63c3.64-.74,7.09-1.98,10.35-3.57l5.08,5.58c2.21,2.44,6.01,2.6,8.45.39l5.7-5.16c2.44-2.25,2.64-6.01.39-8.49l-4.3-4.73c2.05-2.6,3.8-5.47,5.23-8.49l7.87.89c3.29.39,6.28-1.98,6.67-5.23l.89-7.64c.35-3.29-1.98-6.28-5.27-6.67Zm-49.92,32.4c-17.83,0-32.29-14.46-32.29-32.29s14.46-32.29,32.29-32.29,32.29,14.46,32.29,32.29-14.46,32.29-32.29,32.29Z"/>
      <path class="cls-1" d="m362.96,120.79l-4.06-.49c-.04-2.59-.41-5.11-1.09-7.48l3.57-1.65c1.99-.94,2.86-3.34,1.95-5.34l-2.18-4.66c-.94-1.99-3.31-2.86-5.3-1.95l-4.43,2.07c-1.58-1.77-3.34-3.34-5.3-4.66l1.5-4.55c.71-2.1-.41-4.36-2.52-5.07l-4.89-1.62c-2.1-.68-4.36.45-5.04,2.56l-1.32,3.91c-1.39-.23-2.82-.34-4.25-.34-1.13,0-2.22.07-3.27.19l-1.2-3.95c-.64-2.1-2.86-3.31-5-2.67l-4.89,1.5c-2.14.64-3.34,2.86-2.71,4.96l1.39,4.51c-2.03,1.32-3.91,2.82-5.56,4.55l-3.98-2.29c-1.92-1.09-4.36-.45-5.49,1.47l-2.56,4.43c-1.13,1.92-.45,4.36,1.47,5.49l3.83,2.22c-.68,2.14-1.13,4.43-1.28,6.76l-4.55.75c-2.18.38-3.68,2.41-3.31,4.58l.83,5.07c.38,2.18,2.44,3.68,4.62,3.31l4.4-.71c.9,2.29,2.1,4.43,3.53,6.39l-3.08,3.98c-1.35,1.73-1.01,4.25.71,5.6l4.06,3.16c1.77,1.35,4.28,1.01,5.64-.71l2.59-3.38c2.07,1.09,4.25,1.95,6.58,2.52l-.08,4.62c0,2.22,1.77,4.02,3.98,4.06l5.11.04c2.22.04,4.02-1.73,4.06-3.95l.04-4.43c2.44-.49,4.73-1.32,6.91-2.41l3.38,3.72c1.5,1.65,4.02,1.77,5.67.26l3.8-3.42c1.62-1.5,1.77-4.02.26-5.67l-2.86-3.16c1.35-1.77,2.52-3.65,3.46-5.67l5.26.6c2.22.26,4.21-1.32,4.43-3.53l.6-5.07c.26-2.22-1.32-4.21-3.49-4.43Zm-33.33,21.61c-11.95,0-21.57-9.66-21.57-21.57s9.62-21.57,21.57-21.57,21.57,9.66,21.57,21.57-9.66,21.57-21.57,21.57Z"/>
      <path class="cls-1" d="m290.84,88.02l-2.98-.35c-.04-1.94-.35-3.8-.85-5.58l2.67-1.24c1.47-.7,2.13-2.48,1.43-3.95l-1.59-3.49c-.7-1.47-2.48-2.13-3.95-1.43l-3.33,1.51c-1.16-1.28-2.48-2.48-3.91-3.45l1.12-3.41c.5-1.55-.35-3.22-1.9-3.76l-3.64-1.2c-1.55-.5-3.26.31-3.76,1.9l-.97,2.91c-1.05-.15-2.09-.27-3.18-.27-.81,0-1.63.08-2.44.16l-.85-2.95c-.5-1.55-2.17-2.44-3.72-1.98l-3.68,1.12c-1.59.47-2.48,2.13-1.98,3.72l1.01,3.33c-1.51.97-2.91,2.09-4.15,3.41l-2.98-1.74c-1.4-.81-3.22-.31-4.07,1.09l-1.9,3.33c-.81,1.43-.35,3.26,1.09,4.07l2.87,1.67c-.5,1.59-.85,3.29-.97,5.04l-3.37.54c-1.63.27-2.75,1.82-2.48,3.45l.62,3.76c.27,1.63,1.82,2.75,3.45,2.48l3.26-.54c.7,1.71,1.59,3.29,2.64,4.77l-2.29,2.95c-1.01,1.32-.78,3.18.54,4.19l3.02,2.36c1.32,1.01,3.18.78,4.19-.54l1.94-2.52c1.55.81,3.18,1.43,4.88,1.9l-.04,3.41c0,1.67,1.32,3.02,2.98,3.02l3.8.04c1.67.04,3.02-1.28,3.02-2.95l.04-3.29c1.82-.39,3.53-1.01,5.16-1.78l2.52,2.75c1.12,1.24,2.98,1.32,4.22.23l2.83-2.6c1.2-1.09,1.32-2.98.19-4.19l-2.13-2.36c1.01-1.32,1.9-2.75,2.6-4.26l3.91.47c1.63.19,3.1-.97,3.29-2.6l.47-3.8c.19-1.67-1.01-3.14-2.64-3.33Zm-24.85,16.12c-8.88,0-16.09-7.17-16.09-16.09s7.21-16.05,16.09-16.05,16.09,7.17,16.09,16.05-7.21,16.09-16.09,16.09Z"/>
    </g>
  </g>
  <g>
    <path class="cls-1" d="m121.73,358.58l-26.89.05c-1.84-17.65-15.92-17.24-26.44-17.24-4.93,0-10.02,2.5-12.9,4.58-2.87,2.08-4.31,4.51-4.31,7.28,0,3.22,1.7,5.79,5.1,7.7,3.4,1.92,16.42,6.14,27.25,9.24,9.85,2.72,17.59,5.41,23.23,8.08,5.64,2.66,9.16,7.19,12.63,11.76,3.47,4.58,5.21,9.89,5.21,15.95,0,10.6-2.7,27.71-12.51,34.51-9.82,6.8-22.97,10.2-39.46,10.2-27.69,0-48.01-16.2-51.35-44.41l26.44-2.36c.1,19.06,16.97,23.74,29.73,23.74,5.82,0,10.49-1.47,14.11-3.72,3.62-2.25,7.72-9.7,7.72-13.36,0-2.77-.6-5.65-3.13-7.85-2.54-2.19-8.36-4.51-17.47-6.95-11.72-3.11-27.5-8.3-33.25-10.83-5.75-2.53-9.52-6.31-13.25-11-3.73-4.69-6.04-11.42-6.04-17.42,0-10.21,3.82-21.87,12.66-28.4,8.84-6.52,20.54-9.78,35.09-9.78,26.57,0,47.62,14.7,47.83,40.23Z"/>
    <path class="cls-1" d="m182.23,321.09h27.59l51.82,127.86h-28.56l-10.67-29.54h-50.29l-10.1,29.54h-30.86l51.05-127.86Zm31.5,77.19l-17.16-46.86-17.4,46.05,34.56.82Z"/>
    <path class="cls-1" d="m274.5,321.09h36.8c13.35,0,26.7-.32,34.05,1.34,7.35,1.67,14.54,6.62,19.42,12.58,6.17,7.54,8.82,25.6,6.85,34.03q-2.01,8.64-6.05,14.08c-4.03,5.44-9.46,10.82-16.59,13.23-7.13,2.41-21.46,3.97-36.24,3.97h-11.87v48.62h-26.39v-127.86Zm26.39,21.46v36.1h22.75c9.18,0,14.18-2.56,16.83-5.73,2.65-3.17,4.89-8.69,4.89-13.76,0-3.31-1.14-7.17-3.2-9.81-2.06-2.64-4.33-4.92-7.05-5.67-2.73-.75-6.55-1.13-11.47-1.13h-22.75Z"/>
    <path class="cls-1" d="m392.96,321.09h36.8c13.35,0,26.7-.32,34.05,1.34,7.35,1.67,14.54,6.62,19.42,12.58,6.17,7.54,8.82,25.6,6.85,34.03q-2.01,8.64-6.05,14.08c-4.03,5.44-9.46,10.82-16.59,13.23-7.13,2.41-21.46,3.97-36.24,3.97h-11.87v48.62h-26.39v-127.86Zm26.39,21.46v36.1h22.75c9.18,0,14.18-2.56,16.83-5.73,2.65-3.17,4.89-8.69,4.89-13.76,0-3.31-1.14-7.17-3.2-9.81-2.06-2.64-4.33-4.92-7.05-5.67-2.73-.75-6.55-1.13-11.47-1.13h-22.75Z"/>
  </g>
</svg>